<?xml version="1.0" encoding="UTF-8"?>
<!DOCTYPE svg
PUBLIC "-//W3C//DTD SVG 1.1//EN"
       "http://www.w3.org/Graphics/SVG/1.1/DTD/svg11.dtd">
<svg viewBox="44 12 1439 773" width="1395px" height="761px" xmlns="http://www.w3.org/2000/svg" version="1.1">
   <line x1="667" y1="370" x2="657" y2="370" style="stroke:#333;stroke-width:1;"/>
   <line x1="527" y1="355" x2="517" y2="355" style="stroke:#333;stroke-width:1;"/>
   <line x1="657" y1="370" x2="527" y2="355" style="stroke:#333;stroke-width:1;"/>
   <line x1="659.5" y1="370" x2="663.03553390593" y2="373.53553390593" style="stroke:#333;stroke-width:2;"/>
   <line x1="659.5" y1="370" x2="663.03553390593" y2="366.46446609407" style="stroke:#333;stroke-width:2;"/>
   <line x1="522" y1="355" x2="525.53553390593" y2="358.53553390593" style="stroke:#333;stroke-width:2;"/>
   <line x1="522" y1="355" x2="525.53553390593" y2="351.46446609407" style="stroke:#333;stroke-width:2;"/>
   <line x1="667" y1="390" x2="657" y2="390" style="stroke:#b0b;stroke-width:1;"/>
   <line x1="631" y1="668" x2="641" y2="668" style="stroke:#b0b;stroke-width:1;"/>
   <line x1="657" y1="390" x2="631" y2="668" style="stroke:#b0b;stroke-width:1;"/>
   <line x1="659.5" y1="390" x2="663.03553390593" y2="393.53553390593" style="stroke:#b0b;stroke-width:2;"/>
   <line x1="659.5" y1="390" x2="663.03553390593" y2="386.46446609407" style="stroke:#b0b;stroke-width:2;"/>
   <line x1="636" y1="668" x2="632.46446609407" y2="671.53553390593" style="stroke:#b0b;stroke-width:2;"/>
   <line x1="636" y1="668" x2="632.46446609407" y2="664.46446609407" style="stroke:#b0b;stroke-width:2;"/>
   <line x1="196" y1="346" x2="206" y2="346" style="stroke:#0b0;stroke-width:1;"/>
   <line x1="631" y1="668" x2="641" y2="668" style="stroke:#0b0;stroke-width:1;"/>
   <line x1="206" y1="346" x2="631" y2="668" style="stroke:#0b0;stroke-width:1;"/>
   <line x1="203.5" y1="346" x2="199.96446609407" y2="349.53553390593" style="stroke:#0b0;stroke-width:2;"/>
   <line x1="203.5" y1="346" x2="199.96446609407" y2="342.46446609407" style="stroke:#0b0;stroke-width:2;"/>
   <line x1="636" y1="668" x2="632.46446609407" y2="671.53553390593" style="stroke:#0b0;stroke-width:2;"/>
   <line x1="636" y1="668" x2="632.46446609407" y2="664.46446609407" style="stroke:#0b0;stroke-width:2;"/>
   <line x1="270" y1="71" x2="260" y2="71" style="stroke:#bbb;stroke-width:1;"/>
   <line x1="206" y1="246" x2="196" y2="246" style="stroke:#bbb;stroke-width:1;"/>
   <line x1="260" y1="71" x2="206" y2="246" style="stroke:#bbb;stroke-width:1;"/>
   <line x1="262.5" y1="71" x2="266.03553390593" y2="74.535533905933" style="stroke:#bbb;stroke-width:2;"/>
   <line x1="262.5" y1="71" x2="266.03553390593" y2="67.464466094067" style="stroke:#bbb;stroke-width:2;"/>
   <line x1="201" y1="246" x2="204.53553390593" y2="249.53553390593" style="stroke:#bbb;stroke-width:2;"/>
   <line x1="201" y1="246" x2="204.53553390593" y2="242.46446609407" style="stroke:#bbb;stroke-width:2;"/>
   <line x1="376" y1="91" x2="386" y2="91" style="stroke:#bbb;stroke-width:1;"/>
   <line x1="370" y1="355" x2="380" y2="355" style="stroke:#bbb;stroke-width:1;"/>
   <line x1="386" y1="91" x2="370" y2="355" style="stroke:#bbb;stroke-width:1;"/>
   <line x1="383.5" y1="91" x2="379.96446609407" y2="94.535533905933" style="stroke:#bbb;stroke-width:2;"/>
   <line x1="383.5" y1="91" x2="379.96446609407" y2="87.464466094067" style="stroke:#bbb;stroke-width:2;"/>
   <line x1="375" y1="355" x2="371.46446609407" y2="358.53553390593" style="stroke:#bbb;stroke-width:2;"/>
   <line x1="375" y1="355" x2="371.46446609407" y2="351.46446609407" style="stroke:#bbb;stroke-width:2;"/>
   <line x1="1181" y1="206" x2="1171" y2="206" style="stroke:#333;stroke-width:1;"/>
   <line x1="744" y1="668" x2="734" y2="668" style="stroke:#333;stroke-width:1;"/>
   <line x1="1171" y1="206" x2="744" y2="668" style="stroke:#333;stroke-width:1;"/>
   <line x1="1173.5" y1="206" x2="1177.0355339059" y2="209.53553390593" style="stroke:#333;stroke-width:2;"/>
   <line x1="1173.5" y1="206" x2="1177.0355339059" y2="202.46446609407" style="stroke:#333;stroke-width:2;"/>
   <line x1="739" y1="668" x2="742.53553390593" y2="671.53553390593" style="stroke:#333;stroke-width:2;"/>
   <line x1="739" y1="668" x2="742.53553390593" y2="664.46446609407" style="stroke:#333;stroke-width:2;"/>
   <line x1="632" y1="97" x2="622" y2="97" style="stroke:#0bf;stroke-width:1;"/>
   <line x1="631" y1="668" x2="641" y2="668" style="stroke:#0bf;stroke-width:1;"/>
   <line x1="622" y1="97" x2="631" y2="668" style="stroke:#0bf;stroke-width:1;"/>
   <line x1="624.5" y1="97" x2="628.03553390593" y2="100.53553390593" style="stroke:#0bf;stroke-width:2;"/>
   <line x1="624.5" y1="97" x2="628.03553390593" y2="93.464466094067" style="stroke:#0bf;stroke-width:2;"/>
   <line x1="636" y1="668" x2="632.46446609407" y2="671.53553390593" style="stroke:#0bf;stroke-width:2;"/>
   <line x1="636" y1="668" x2="632.46446609407" y2="664.46446609407" style="stroke:#0bf;stroke-width:2;"/>
   <line x1="878" y1="143" x2="868" y2="143" style="stroke:#c00;stroke-width:1;"/>
   <line x1="779" y1="57" x2="769" y2="57" style="stroke:#c00;stroke-width:1;"/>
   <line x1="868" y1="143" x2="779" y2="57" style="stroke:#c00;stroke-width:1;"/>
   <line x1="870.5" y1="143" x2="874.03553390593" y2="146.53553390593" style="stroke:#c00;stroke-width:2;"/>
   <line x1="870.5" y1="143" x2="874.03553390593" y2="139.46446609407" style="stroke:#c00;stroke-width:2;"/>
   <line x1="774" y1="57" x2="777.53553390593" y2="60.535533905933" style="stroke:#c00;stroke-width:2;"/>
   <line x1="774" y1="57" x2="777.53553390593" y2="53.464466094067" style="stroke:#c00;stroke-width:2;"/>
   <line x1="878" y1="163" x2="868" y2="163" style="stroke:#b0b;stroke-width:1;"/>
   <line x1="872" y1="266" x2="882" y2="266" style="stroke:#b0b;stroke-width:1;"/>
   <line x1="868" y1="163" x2="872" y2="266" style="stroke:#b0b;stroke-width:1;"/>
   <line x1="870.5" y1="163" x2="874.03553390593" y2="166.53553390593" style="stroke:#b0b;stroke-width:2;"/>
   <line x1="870.5" y1="163" x2="874.03553390593" y2="159.46446609407" style="stroke:#b0b;stroke-width:2;"/>
   <line x1="877" y1="266" x2="873.46446609407" y2="269.53553390593" style="stroke:#b0b;stroke-width:2;"/>
   <line x1="877" y1="266" x2="873.46446609407" y2="262.46446609407" style="stroke:#b0b;stroke-width:2;"/>
   <line x1="1264" y1="578" x2="1254" y2="578" style="stroke:#bbb;stroke-width:1;"/>
   <line x1="744" y1="668" x2="734" y2="668" style="stroke:#bbb;stroke-width:1;"/>
   <line x1="1254" y1="578" x2="744" y2="668" style="stroke:#bbb;stroke-width:1;"/>
   <line x1="1256.5" y1="578" x2="1260.0355339059" y2="581.53553390593" style="stroke:#bbb;stroke-width:2;"/>
   <line x1="1256.5" y1="578" x2="1260.0355339059" y2="574.46446609407" style="stroke:#bbb;stroke-width:2;"/>
   <line x1="739" y1="668" x2="742.53553390593" y2="671.53553390593" style="stroke:#bbb;stroke-width:2;"/>
   <line x1="739" y1="668" x2="742.53553390593" y2="664.46446609407" style="stroke:#bbb;stroke-width:2;"/>
   <line x1="517" y1="415" x2="527" y2="415" style="stroke:#0bf;stroke-width:1;"/>
   <line x1="631" y1="668" x2="641" y2="668" style="stroke:#0bf;stroke-width:1;"/>
   <line x1="527" y1="415" x2="631" y2="668" style="stroke:#0bf;stroke-width:1;"/>
   <line x1="524.5" y1="415" x2="520.96446609407" y2="418.53553390593" style="stroke:#0bf;stroke-width:2;"/>
   <line x1="524.5" y1="415" x2="520.96446609407" y2="411.46446609407" style="stroke:#0bf;stroke-width:2;"/>
   <line x1="636" y1="668" x2="632.46446609407" y2="671.53553390593" style="stroke:#0bf;stroke-width:2;"/>
   <line x1="636" y1="668" x2="632.46446609407" y2="664.46446609407" style="stroke:#0bf;stroke-width:2;"/>
   <line x1="348" y1="188" x2="338" y2="188" style="stroke:#0b0;stroke-width:1;"/>
   <line x1="370" y1="355" x2="380" y2="355" style="stroke:#0b0;stroke-width:1;"/>
   <line x1="338" y1="188" x2="370" y2="355" style="stroke:#0b0;stroke-width:1;"/>
   <line x1="340.5" y1="188" x2="344.03553390593" y2="191.53553390593" style="stroke:#0b0;stroke-width:2;"/>
   <line x1="340.5" y1="188" x2="344.03553390593" y2="184.46446609407" style="stroke:#0b0;stroke-width:2;"/>
   <line x1="375" y1="355" x2="371.46446609407" y2="358.53553390593" style="stroke:#0b0;stroke-width:2;"/>
   <line x1="375" y1="355" x2="371.46446609407" y2="351.46446609407" style="stroke:#0b0;stroke-width:2;"/>
   <line x1="471" y1="208" x2="481" y2="208" style="stroke:#cb0;stroke-width:1;"/>
   <line x1="622" y1="57" x2="632" y2="57" style="stroke:#cb0;stroke-width:1;"/>
   <line x1="481" y1="208" x2="622" y2="57" style="stroke:#cb0;stroke-width:1;"/>
   <line x1="478.5" y1="208" x2="474.96446609407" y2="211.53553390593" style="stroke:#cb0;stroke-width:2;"/>
   <line x1="478.5" y1="208" x2="474.96446609407" y2="204.46446609407" style="stroke:#cb0;stroke-width:2;"/>
   <line x1="627" y1="57" x2="623.46446609407" y2="60.535533905933" style="stroke:#cb0;stroke-width:2;"/>
   <line x1="627" y1="57" x2="623.46446609407" y2="53.464466094067" style="stroke:#cb0;stroke-width:2;"/>
   <line x1="1287" y1="378" x2="1277" y2="378" style="stroke:#0bf;stroke-width:1;"/>
   <line x1="1254" y1="538" x2="1264" y2="538" style="stroke:#0bf;stroke-width:1;"/>
   <line x1="1277" y1="378" x2="1254" y2="538" style="stroke:#0bf;stroke-width:1;"/>
   <line x1="1279.5" y1="378" x2="1283.0355339059" y2="381.53553390593" style="stroke:#0bf;stroke-width:2;"/>
   <line x1="1279.5" y1="378" x2="1283.0355339059" y2="374.46446609407" style="stroke:#0bf;stroke-width:2;"/>
   <line x1="1259" y1="538" x2="1255.4644660941" y2="541.53553390593" style="stroke:#0bf;stroke-width:2;"/>
   <line x1="1259" y1="538" x2="1255.4644660941" y2="534.46446609407" style="stroke:#0bf;stroke-width:2;"/>
   <line x1="1287" y1="398" x2="1277" y2="398" style="stroke:#0b0;stroke-width:1;"/>
   <line x1="1328" y1="166" x2="1318" y2="166" style="stroke:#0b0;stroke-width:1;"/>
   <line x1="1277" y1="398" x2="1328" y2="166" style="stroke:#0b0;stroke-width:1;"/>
   <line x1="1279.5" y1="398" x2="1283.0355339059" y2="401.53553390593" style="stroke:#0b0;stroke-width:2;"/>
   <line x1="1279.5" y1="398" x2="1283.0355339059" y2="394.46446609407" style="stroke:#0b0;stroke-width:2;"/>
   <line x1="1323" y1="166" x2="1326.5355339059" y2="169.53553390593" style="stroke:#0b0;stroke-width:2;"/>
   <line x1="1323" y1="166" x2="1326.5355339059" y2="162.46446609407" style="stroke:#0b0;stroke-width:2;"/>
   <line x1="1287" y1="418" x2="1277" y2="418" style="stroke:#0bf;stroke-width:1;"/>
   <line x1="744" y1="668" x2="734" y2="668" style="stroke:#0bf;stroke-width:1;"/>
   <line x1="1277" y1="418" x2="744" y2="668" style="stroke:#0bf;stroke-width:1;"/>
   <line x1="1279.5" y1="418" x2="1283.0355339059" y2="421.53553390593" style="stroke:#0bf;stroke-width:2;"/>
   <line x1="1279.5" y1="418" x2="1283.0355339059" y2="414.46446609407" style="stroke:#0bf;stroke-width:2;"/>
   <line x1="739" y1="668" x2="742.53553390593" y2="671.53553390593" style="stroke:#0bf;stroke-width:2;"/>
   <line x1="739" y1="668" x2="742.53553390593" y2="664.46446609407" style="stroke:#0bf;stroke-width:2;"/>
   <rect width="75" height="20" x="882" y="236" style="fill:#007;stroke:black;"/>
   <text width="75" height="20" x="887" y="250" style="fill:#fff;" font-family="Arial" font-size="16px"> answer</text>
   <rect width="75" height="20" x="882" y="256" style="fill:#aea;stroke:black;"/>
   <text width="75" height="20" x="887" y="270" style="fill:black;" font-family="Arial" font-size="16px">id</text>
   <rect width="75" height="20" x="882" y="276" style="fill:none;stroke:black;"/>
   <text width="75" height="20" x="887" y="290" style="fill:black;" font-family="Arial" font-size="16px">answer</text>
   <rect width="75" height="20" x="882" y="296" style="fill:none;stroke:black;"/>
   <text width="75" height="20" x="887" y="310" style="fill:black;" font-family="Arial" font-size="16px">isAnswer</text>
   <rect width="137" height="20" x="667" y="260" style="fill:#007;stroke:black;"/>
   <text width="137" height="20" x="672" y="274" style="fill:#fff;" font-family="Arial" font-size="16px"> game</text>
   <rect width="137" height="20" x="667" y="280" style="fill:#aea;stroke:black;"/>
   <text width="137" height="20" x="672" y="294" style="fill:black;" font-family="Arial" font-size="16px">id</text>
   <rect width="137" height="20" x="667" y="300" style="fill:none;stroke:black;"/>
   <text width="137" height="20" x="672" y="314" style="fill:black;" font-family="Arial" font-size="16px">startDate</text>
   <rect width="137" height="20" x="667" y="320" style="fill:none;stroke:black;"/>
   <text width="137" height="20" x="672" y="334" style="fill:black;" font-family="Arial" font-size="16px">endDate</text>
   <rect width="137" height="20" x="667" y="340" style="fill:none;stroke:black;"/>
   <text width="137" height="20" x="672" y="354" style="fill:black;" font-family="Arial" font-size="16px">score</text>
   <rect width="137" height="20" x="667" y="360" style="fill:none;stroke:black;"/>
   <text width="137" height="20" x="672" y="374" style="fill:black;" font-family="Arial" font-size="16px">subject_id</text>
   <rect width="137" height="20" x="667" y="380" style="fill:none;stroke:black;"/>
   <text width="137" height="20" x="672" y="394" style="fill:black;" font-family="Arial" font-size="16px">quizz_metadata_id</text>
   <rect width="93" height="20" x="641" y="638" style="fill:#007;stroke:black;"/>
   <text width="93" height="20" x="646" y="652" style="fill:#fff;" font-family="Arial" font-size="16px"> metadata</text>
   <rect width="93" height="20" x="641" y="658" style="fill:#aea;stroke:black;"/>
   <text width="93" height="20" x="646" y="672" style="fill:black;" font-family="Arial" font-size="16px">id</text>
   <rect width="93" height="20" x="641" y="678" style="fill:none;stroke:black;"/>
   <text width="93" height="20" x="646" y="692" style="fill:black;" font-family="Arial" font-size="16px">createBy</text>
   <rect width="93" height="20" x="641" y="698" style="fill:none;stroke:black;"/>
   <text width="93" height="20" x="646" y="712" style="fill:black;" font-family="Arial" font-size="16px">createDate</text>
   <rect width="93" height="20" x="641" y="718" style="fill:none;stroke:black;"/>
   <text width="93" height="20" x="646" y="732" style="fill:black;" font-family="Arial" font-size="16px">updateBy</text>
   <rect width="93" height="20" x="641" y="738" style="fill:none;stroke:black;"/>
   <text width="93" height="20" x="646" y="752" style="fill:black;" font-family="Arial" font-size="16px">updateDate</text>
   <rect width="137" height="20" x="59" y="216" style="fill:#007;stroke:black;"/>
   <text width="137" height="20" x="64" y="230" style="fill:#fff;" font-family="Arial" font-size="16px"> mode</text>
   <rect width="137" height="20" x="59" y="236" style="fill:#aea;stroke:black;"/>
   <text width="137" height="20" x="64" y="250" style="fill:black;" font-family="Arial" font-size="16px">id</text>
   <rect width="137" height="20" x="59" y="256" style="fill:none;stroke:black;"/>
   <text width="137" height="20" x="64" y="270" style="fill:black;" font-family="Arial" font-size="16px">name</text>
   <rect width="137" height="20" x="59" y="276" style="fill:none;stroke:black;"/>
   <text width="137" height="20" x="64" y="290" style="fill:black;" font-family="Arial" font-size="16px">description</text>
   <rect width="137" height="20" x="59" y="296" style="fill:none;stroke:black;"/>
   <text width="137" height="20" x="64" y="310" style="fill:black;" font-family="Arial" font-size="16px">nbrQ</text>
   <rect width="137" height="20" x="59" y="316" style="fill:none;stroke:black;"/>
   <text width="137" height="20" x="64" y="330" style="fill:black;" font-family="Arial" font-size="16px">img</text>
   <rect width="137" height="20" x="59" y="336" style="fill:none;stroke:black;"/>
   <text width="137" height="20" x="64" y="350" style="fill:black;" font-family="Arial" font-size="16px">quizz_metadata_id</text>
   <rect width="106" height="20" x="270" y="41" style="fill:#007;stroke:black;"/>
   <text width="106" height="20" x="275" y="55" style="fill:#fff;" font-family="Arial" font-size="16px"> mode_subject</text>
   <rect width="106" height="20" x="270" y="61" style="fill:none;stroke:black;"/>
   <text width="106" height="20" x="275" y="75" style="fill:black;" font-family="Arial" font-size="16px">mode_id</text>
   <rect width="106" height="20" x="270" y="81" style="fill:none;stroke:black;"/>
   <text width="106" height="20" x="275" y="95" style="fill:black;" font-family="Arial" font-size="16px">subject_id</text>
   <rect width="137" height="20" x="1181" y="136" style="fill:#007;stroke:black;"/>
   <text width="137" height="20" x="1186" y="150" style="fill:#fff;" font-family="Arial" font-size="16px"> password</text>
   <rect width="137" height="20" x="1181" y="156" style="fill:#aea;stroke:black;"/>
   <text width="137" height="20" x="1186" y="170" style="fill:black;" font-family="Arial" font-size="16px">id</text>
   <rect width="137" height="20" x="1181" y="176" style="fill:none;stroke:black;"/>
   <text width="137" height="20" x="1186" y="190" style="fill:black;" font-family="Arial" font-size="16px">pwd</text>
   <rect width="137" height="20" x="1181" y="196" style="fill:none;stroke:black;"/>
   <text width="137" height="20" x="1186" y="210" style="fill:black;" font-family="Arial" font-size="16px">quizz_metadata_id</text>
   <rect width="137" height="20" x="632" y="27" style="fill:#007;stroke:black;"/>
   <text width="137" height="20" x="637" y="41" style="fill:#fff;" font-family="Arial" font-size="16px"> question</text>
   <rect width="137" height="20" x="632" y="47" style="fill:#aea;stroke:black;"/>
   <text width="137" height="20" x="637" y="61" style="fill:black;" font-family="Arial" font-size="16px">id</text>
   <rect width="137" height="20" x="632" y="67" style="fill:none;stroke:black;"/>
   <text width="137" height="20" x="637" y="81" style="fill:black;" font-family="Arial" font-size="16px">question</text>
   <rect width="137" height="20" x="632" y="87" style="fill:none;stroke:black;"/>
   <text width="137" height="20" x="637" y="101" style="fill:black;" font-family="Arial" font-size="16px">quizz_metadata_id</text>
   <rect width="123" height="20" x="878" y="113" style="fill:#007;stroke:black;"/>
   <text width="123" height="20" x="883" y="127" style="fill:#fff;" font-family="Arial" font-size="16px"> question_answer</text>
   <rect width="123" height="20" x="878" y="133" style="fill:none;stroke:black;"/>
   <text width="123" height="20" x="883" y="147" style="fill:black;" font-family="Arial" font-size="16px">question_id</text>
   <rect width="123" height="20" x="878" y="153" style="fill:none;stroke:black;"/>
   <text width="123" height="20" x="883" y="167" style="fill:black;" font-family="Arial" font-size="16px">answer_id</text>
   <rect width="137" height="20" x="1264" y="508" style="fill:#007;stroke:black;"/>
   <text width="137" height="20" x="1269" y="522" style="fill:#fff;" font-family="Arial" font-size="16px"> role</text>
   <rect width="137" height="20" x="1264" y="528" style="fill:#aea;stroke:black;"/>
   <text width="137" height="20" x="1269" y="542" style="fill:black;" font-family="Arial" font-size="16px">id</text>
   <rect width="137" height="20" x="1264" y="548" style="fill:none;stroke:black;"/>
   <text width="137" height="20" x="1269" y="562" style="fill:black;" font-family="Arial" font-size="16px">name</text>
   <rect width="137" height="20" x="1264" y="568" style="fill:none;stroke:black;"/>
   <text width="137" height="20" x="1269" y="582" style="fill:black;" font-family="Arial" font-size="16px">quizz_metadata_id</text>
   <rect width="137" height="20" x="380" y="325" style="fill:#007;stroke:black;"/>
   <text width="137" height="20" x="385" y="339" style="fill:#fff;" font-family="Arial" font-size="16px"> subject</text>
   <rect width="137" height="20" x="380" y="345" style="fill:#aea;stroke:black;"/>
   <text width="137" height="20" x="385" y="359" style="fill:black;" font-family="Arial" font-size="16px">id</text>
   <rect width="137" height="20" x="380" y="365" style="fill:none;stroke:black;"/>
   <text width="137" height="20" x="385" y="379" style="fill:black;" font-family="Arial" font-size="16px">name</text>
   <rect width="137" height="20" x="380" y="385" style="fill:none;stroke:black;"/>
   <text width="137" height="20" x="385" y="399" style="fill:black;" font-family="Arial" font-size="16px">description</text>
   <rect width="137" height="20" x="380" y="405" style="fill:none;stroke:black;"/>
   <text width="137" height="20" x="385" y="419" style="fill:black;" font-family="Arial" font-size="16px">quizz_metadata_id</text>
   <rect width="123" height="20" x="348" y="158" style="fill:#007;stroke:black;"/>
   <text width="123" height="20" x="353" y="172" style="fill:#fff;" font-family="Arial" font-size="16px"> subject_question</text>
   <rect width="123" height="20" x="348" y="178" style="fill:none;stroke:black;"/>
   <text width="123" height="20" x="353" y="192" style="fill:black;" font-family="Arial" font-size="16px">subject_id</text>
   <rect width="123" height="20" x="348" y="198" style="fill:none;stroke:black;"/>
   <text width="123" height="20" x="353" y="212" style="fill:black;" font-family="Arial" font-size="16px">question_id</text>
   <rect width="137" height="20" x="1287" y="268" style="fill:#007;stroke:black;"/>
   <text width="137" height="20" x="1292" y="282" style="fill:#fff;" font-family="Arial" font-size="16px"> user</text>
   <rect width="137" height="20" x="1287" y="288" style="fill:#aea;stroke:black;"/>
   <text width="137" height="20" x="1292" y="302" style="fill:black;" font-family="Arial" font-size="16px">id</text>
   <rect width="137" height="20" x="1287" y="308" style="fill:none;stroke:black;"/>
   <text width="137" height="20" x="1292" y="322" style="fill:black;" font-family="Arial" font-size="16px">firstname</text>
   <rect width="137" height="20" x="1287" y="328" style="fill:none;stroke:black;"/>
   <text width="137" height="20" x="1292" y="342" style="fill:black;" font-family="Arial" font-size="16px">lastname</text>
   <rect width="137" height="20" x="1287" y="348" style="fill:none;stroke:black;"/>
   <text width="137" height="20" x="1292" y="362" style="fill:black;" font-family="Arial" font-size="16px">pseudo</text>
   <rect width="137" height="20" x="1287" y="368" style="fill:none;stroke:black;"/>
   <text width="137" height="20" x="1292" y="382" style="fill:black;" font-family="Arial" font-size="16px">role_id</text>
   <rect width="137" height="20" x="1287" y="388" style="fill:none;stroke:black;"/>
   <text width="137" height="20" x="1292" y="402" style="fill:black;" font-family="Arial" font-size="16px">password_id</text>
   <rect width="137" height="20" x="1287" y="408" style="fill:none;stroke:black;"/>
   <text width="137" height="20" x="1292" y="422" style="fill:black;" font-family="Arial" font-size="16px">quizz_metadata_id</text>
</svg>
